PathFileType	4	(X/Y/Z)	D:\Long Term Storage\D'Arcy Smith\Coord7.trc
DataRate	CameraRate	NumFrames	NumMarkers	Units	OrigDataRate	OrigDataStartFrame	OrigNumFrames
120.00	120.00	      85	4	mm	120.00	3037	      4859
Frame#	Time	M1			M2			M3			M4			
		X1	Y1	Z1	X2	Y2	Z2	X3	Y3	Z3	X4	Y4	Z4	

3037	25.300	1120.15527	440.30463	236.56621	1596.32190	339.90005	603.35052							
3038	25.308	1119.57605	440.99579	234.96793	1593.25391	338.99353	598.76660							
3039	25.317	1119.57764	441.53522	233.40939	1590.51501	337.43121	594.23364							
3040	25.325	1119.69873	441.66058	232.06207	1587.65344	335.97034	589.34937							
3041	25.333	1119.87891	441.25623	231.05977	1584.30957	333.20700	584.89618							
3042	25.342	1120.40906	440.54547	230.23911	1581.07520	332.24658	578.72437							
3043	25.350	1120.61951	439.12646	229.87299	1578.18311	330.65607	572.53802							
3044	25.358	1120.98779	437.16281	229.71741	1575.31970	329.34769	565.82477							
3045	25.367	1121.24951	434.73370	230.09467	1572.67456	328.16019	558.56110							
3046	25.375	1121.54724	431.82590	230.93112	1570.04517	327.13034	550.81970							
3047	25.383	1121.80579	428.33621	232.06386	1567.37122	325.76117	542.87933							
3048	25.392	1121.88367	424.40268	233.79570	1565.14246	325.65518	534.21606							
3049	25.400	1121.76611	420.00818	236.09326	1563.88782	325.14343	524.98621							
3050	25.408	1121.43274	415.10358	238.90762	1561.33228	325.70013	514.91711							
3051	25.417	1120.95923	409.68762	242.32339	1559.78369	325.53729	504.82800							
3052	25.425	1120.03931	403.73965	246.29198	1557.52234	326.45059	493.59531							
3053	25.433	1118.82776	397.49097	250.90067	1556.34021	326.79843	482.77530							
3054	25.442	1117.70081	391.39795	254.82249	1555.10901	327.67813	471.27753							
3055	25.450	1115.36475	383.38004	263.89597	1553.30823	329.31839	459.35056							
3056	25.458	1113.37488	376.04828	270.44217	1552.55774	330.06210	447.51917							
3057	25.467	1111.26685	368.65005	277.70956	1551.56677	331.60477	435.46185							
3058	25.475	1108.85156	360.97473	286.50146	1550.50024	333.13867	423.81598							
3059	25.483	1106.22766	353.43784	295.63568	1549.67859	334.95590	412.04062							
3060	25.492	1103.65479	345.88309	305.81921	1548.80872	336.61859	400.29916							
3061	25.500	1100.88379	338.24203	316.64441	1548.13074	338.53131	388.48770							
3062	25.508	1098.44641	331.05405	328.50519	1547.34900	340.36005	377.48090							
3063	25.517	1095.67896	324.11539	341.14786	1546.65015	342.17245	366.32526							
3064	25.525	1093.57141	317.44733	354.37521	1546.96277	344.44525	357.44620							
3065	25.533	1090.72705	310.84146	369.94159	1546.37451	346.66968	347.02283							
3066	25.542	1089.13538	306.40906	382.40054	1545.99438	348.70352	337.08395							
3067	25.550	1087.01331	301.95123	397.29398	1545.68286	350.87567	327.72083							
3068	25.558	1086.10742	299.00107	410.69791	1545.61963	353.04477	319.45963							
3069	25.567	1084.53870	297.05844	426.68417	1545.50708	355.08224	311.17691							
3070	25.575	1082.58728	295.80731	443.20575	1545.67542	356.59970	304.44382							
3071	25.583	1081.64575	295.21841	455.36670	1545.90039	358.28369	298.35284							
3072	25.592	1080.40125	295.31430	469.39346	1546.35413	359.43268	293.19052							
3073	25.600	1079.41663	296.08743	482.83047	1548.08203	360.18668	290.17560							
3074	25.608	1078.43787	297.50208	495.67136	1548.97522	360.68002	286.88400							
3075	25.617	1077.03687	298.38574	508.45044	1549.98328	360.71396	284.90942							
3076	25.625	1076.92419	300.17685	518.93317	1551.21069	360.34995	283.58942							
3077	25.633	1076.15393	302.65866	528.48785	1552.34082	359.42313	283.16718							
3078	25.642	1076.13586	304.38040	537.08691	1553.15503	358.07779	283.16229							
3079	25.650	1075.84375	305.71024	544.24689	1555.12158	356.12643	285.29425							
3080	25.658	1075.33521	307.72144	553.13220	1556.65002	353.78192	287.84610							
3081	25.667	1075.07471	308.27338	558.67090	1558.34460	350.90619	291.06189							
3082	25.675	1075.59021	310.21008	562.94116	1560.16089	347.31189	295.06384							
3083	25.683	1075.59485	311.18530	566.61743	1561.99792	343.53363	300.25787							
3084	25.692	1074.98694	312.08392	570.06189	1563.82471	339.19113	306.20007							
3085	25.700	1075.23022	312.97916	572.19916	1565.96680	334.60751	313.15717							
3086	25.708	1076.26172	313.59177	572.35187	1568.27783	330.05731	321.64551							
3087	25.717	1076.53687	314.30460	572.42914	1570.72534	325.03036	331.05460							
3088	25.725	1076.98889	314.97443	571.94354	1573.02161	319.74463	340.63766							
3089	25.733	1077.52795	315.59558	570.67212	1575.83801	314.89014	352.01245							
3090	25.742	1078.36108	316.34216	568.50360	1577.47839	310.10681	362.60718							
3091	25.750	1079.29224	316.97647	565.62616	1581.63013	304.82541	377.49155							
3092	25.758	1080.53857	317.77972	561.40515	1584.33484	300.44104	391.12537							
3093	25.767	1081.76233	318.21896	556.92090	1587.28699	296.52829	405.86551							
3094	25.775	1083.57422	318.88995	551.74512	1589.15466	293.47403	419.59454							
3095	25.783	1085.60938	319.24167	545.24023	1591.95728	290.84805	435.38968							
3096	25.792	1087.95276	319.86404	538.05981	1594.50439	288.66501	451.54132							
3097	25.800	1090.51489	320.58276	530.17432	1596.86365	286.97845	467.95190							
3098	25.808	1093.29041	320.08585	518.91168	1598.90710	286.57693	484.24008							
3099	25.817	1095.92078	320.99817	512.96252	1600.66882	286.90176	500.35818							
3100	25.825	1099.75549	322.03973	500.09705	1602.88538	287.68857	516.61566							
3101	25.833	1103.50745	323.20929	488.83725	1604.58093	289.63528	532.55157							
3102	25.842	1107.39258	324.40421	476.91306	1606.25586	291.90729	547.82355							
3103	25.850	1111.54224	326.10168	464.45993	1607.68799	294.90878	562.83014							
3104	25.858	1115.80627	328.14371	451.67325	1609.20654	298.53348	577.02490							
3105	25.867	1119.67627	330.02362	440.83856	1610.37952	302.74725	590.74261							
3106	25.875	1123.58716	332.73068	427.55658	1611.44336	308.29166	603.00256							
3107	25.883	1127.83691	335.88983	413.52679	1612.55103	313.57962	615.35376							
3108	25.892	1131.79492	339.35449	399.89432	1613.42480	319.32419	626.89319							
3109	25.900	1134.91931	342.92337	386.77017	1614.20483	325.33688	637.48779							
3110	25.908	1138.62280	346.81570	373.23990	1614.99536	331.68781	647.28864							
3111	25.917	1141.28772	351.26852	360.08926	1615.59204	337.88736	655.91809							
3112	25.925	1144.91028	355.67191	344.49173	1615.25818	343.59982	664.00372							
3113	25.933	1145.94360	359.92221	332.88043	1615.58801	349.76004	671.40967							
3114	25.942	1147.61377	364.73550	320.60156	1615.65063	355.94739	677.75049							
3115	25.950	1148.79089	369.42203	308.56516	1616.37903	362.06967	685.05878							
3116	25.958	1149.93750	374.26135	297.05627	1617.12024	366.52072	690.98389							
3117	25.967	1150.29346	378.80493	286.30606	1617.20325	371.26984	695.06061							
3118	25.975	1150.73279	383.16431	275.53384	1617.24927	375.44403	698.77234							
3119	25.983	1151.59424	388.05612	264.50400	1617.08850	378.87000	701.89459							
3120	25.992	1150.49695	391.37634	256.34299	1617.24951	381.35104	704.68719							
3121	26.000	1151.42932	396.96048	243.52818	1616.32043	383.54788	705.49695							
